<?xml version="1.0" encoding="UTF-8" standalone="no"?>
<!-- Created with Inkscape (http://www.inkscape.org/) -->

<svg
   xmlns:dc="http://purl.org/dc/elements/1.1/"
   xmlns:cc="http://creativecommons.org/ns#"
   xmlns:rdf="http://www.w3.org/1999/02/22-rdf-syntax-ns#"
   xmlns:svg="http://www.w3.org/2000/svg"
   xmlns="http://www.w3.org/2000/svg"
   xmlns:sodipodi="http://sodipodi.sourceforge.net/DTD/sodipodi-0.dtd"
   xmlns:inkscape="http://www.inkscape.org/namespaces/inkscape"
   width="511.99899"
   height="512"
   id="svg3061"
   version="1.1"
   inkscape:version="0.48.4 r9939"
   sodipodi:docname="New document 2">
  <defs
     id="defs3063" />
  <sodipodi:namedview
     id="base"
     pagecolor="#ffffff"
     bordercolor="#666666"
     borderopacity="1.0"
     inkscape:pageopacity="0.0"
     inkscape:pageshadow="2"
     inkscape:zoom="0.35"
     inkscape:cx="219.57093"
     inkscape:cy="270.28571"
     inkscape:document-units="px"
     inkscape:current-layer="layer1"
     showgrid="false"
     fit-margin-top="0"
     fit-margin-left="0"
     fit-margin-right="0"
     fit-margin-bottom="0"
     inkscape:window-width="896"
     inkscape:window-height="793"
     inkscape:window-x="22"
     inkscape:window-y="22"
     inkscape:window-maximized="0" />
  <metadata
     id="metadata3066">
    <rdf:RDF>
      <cc:Work
         rdf:about="">
        <dc:format>image/svg+xml</dc:format>
        <dc:type
           rdf:resource="http://purl.org/dc/dcmitype/StillImage" />
        <dc:title></dc:title>
      </cc:Work>
    </rdf:RDF>
  </metadata>
  <g
     inkscape:label="Layer 1"
     inkscape:groupmode="layer"
     id="layer1"
     transform="translate(-155.42907,-290.6479)">
    <path
       inkscape:connector-curvature="0"
       d="m 223.57507,666.11289 c -37.598,0 -68.146,30.667 -68.146,68.038 0,37.577 30.55,67.901 68.146,67.901 37.733,0 68.247,-30.324 68.247,-67.901 -10e-4,-37.371 -30.512,-68.038 -68.247,-68.038 z m -68.069,-201.49999 0,98.129 c 63.892,0 123.979,24.986 169.229,70.25599 45.192,45.159 70.141,105.518 70.141,169.65 l 98.561,0 C 493.43607,616.2379 341.79607,464.6129 155.50607,464.6129 z m 0.116,-173.965 0,98.178 c 227.891,0 413.378,185.667 413.378,413.82199 l 98.42799,0 c 0,-282.23499 -229.62699,-511.99999 -511.80599,-511.99999 z"
       id="path67"
	   style="fill:#ffffff" />
  </g>
</svg>
